# xmcd CD database file
#
# Track frame offsets:
#	150
#	17310
#	40085
#	58316
#	74332
#	96083
#	113964
#	126763
#	152829
#	177401
#	205609
#	220353
#	238342
#	256294
#	283865
#	303860
#
# Disc length: 4341 seconds
#
# Revision: 0
# Processed by: cddbd v1.5.2PL0 Copyright (c) Steve Scherf et al.
# Submitted via: CDex 1.74
#
DISCID=e810f310
DTITLE=Various Artist - Merengue Dance Box [CD1)
DYEAR=1900
DGENRE=Merengue
TTITLE0=De Maya, Lisa - La fiesta
TTITLE1=Grupo Ramirez - Morning
TTITLE2=Llerena, William - Bilirubina
TTITLE3=El Chico Del Sol Y La Familie - Rumba y Guapacha
TTITLE4=Rupo Ramirez - Confundido
TTITLE5=Soler, Rene and His Son De Cuba - Muvete
TTITLE6=Ramirez, Raul - Compadre pedro juan
TTITLE7=Rupo Ramirez - Tu sonrisa
TTITLE8=Havana Mambo - Chica Merengue
TTITLE9=Superfiesta Latina - La vida es un carneval
TTITLE10=Rupo Ramirez - Ring my b. p.
TTITLE11=de Villa, Victoria - Camion del corazon
TTITLE12=Crespo Martinez, Martin - El tranquilo
TTITLE13=Rupo Ramirez - Jump And Get On Bad
TTITLE14=Llerena, William - Suavamente
TTITLE15=Pollan, Al - Mueve Mueve
EXTD=
EXTT0=
EXTT1=
EXTT2=
EXTT3=
EXTT4=
EXTT5=
EXTT6=
EXTT7=
EXTT8=
EXTT9=
EXTT10=
EXTT11=
EXTT12=
EXTT13=
EXTT14=
EXTT15=
PLAYORDER=
